<?xml version="1.0" standalone="no"?><svg xmlns="http://www.w3.org/2000/svg" viewBox="0 0 1440 320"><path fill="#f1a661" fill-opacity="1" d="M0,0L20,26.7C40,53,80,107,120,144C160,181,200,203,240,181.3C280,160,320,96,360,106.7C400,117,440,203,480,208C520,213,560,139,600,96C640,53,680,43,720,69.3C760,96,800,160,840,181.3C880,203,920,181,960,154.7C1000,128,1040,96,1080,90.7C1120,85,1160,107,1200,138.7C1240,171,1280,213,1320,224C1360,235,1400,213,1420,202.7L1440,192L1440,0L1420,0C1400,0,1360,0,1320,0C1280,0,1240,0,1200,0C1160,0,1120,0,1080,0C1040,0,1000,0,960,0C920,0,880,0,840,0C800,0,760,0,720,0C680,0,640,0,600,0C560,0,520,0,480,0C440,0,400,0,360,0C320,0,280,0,240,0C200,0,160,0,120,0C80,0,40,0,20,0L0,0Z"></path></svg>