<?xml version="1.0" standalone="no"?><svg xmlns="http://www.w3.org/2000/svg" viewBox="0 0 1440 320"><path fill="#f1a661" fill-opacity="1" d="M0,0L20,26.7C40,53,80,107,120,144C160,181,200,203,240,181.3C280,160,320,96,360,106.7C400,117,440,203,480,208C520,213,560,139,600,96C640,53,680,43,720,69.3C760,96,800,160,840,181.3C880,203,920,181,960,154.7C1000,128,1040,96,1080,90.7C1120,85,1160,107,1200,138.7C1240,171,1280,213,1320,224C1360,235,1400,213,1420,202.7L1440,192L1440,320L1420,320C1400,320,1360,320,1320,320C1280,320,1240,320,1200,320C1160,320,1120,320,1080,320C1040,320,1000,320,960,320C920,320,880,320,840,320C800,320,760,320,720,320C680,320,640,320,600,320C560,320,520,320,480,320C440,320,400,320,360,320C320,320,280,320,240,320C200,320,160,320,120,320C80,320,40,320,20,320L0,320Z"></path></svg>