<?xml version="1.0" standalone="no"?><svg xmlns="http://www.w3.org/2000/svg" viewBox="0 0 1440 320"><path fill="#f1a661" fill-opacity="1" d="M0,32L26.7,53.3C53.3,75,107,117,160,144C213.3,171,267,181,320,202.7C373.3,224,427,256,480,229.3C533.3,203,587,117,640,122.7C693.3,128,747,224,800,229.3C853.3,235,907,149,960,138.7C1013.3,128,1067,192,1120,229.3C1173.3,267,1227,277,1280,240C1333.3,203,1387,117,1413,74.7L1440,32L1440,320L1413.3,320C1386.7,320,1333,320,1280,320C1226.7,320,1173,320,1120,320C1066.7,320,1013,320,960,320C906.7,320,853,320,800,320C746.7,320,693,320,640,320C586.7,320,533,320,480,320C426.7,320,373,320,320,320C266.7,320,213,320,160,320C106.7,320,53,320,27,320L0,320Z"></path></svg>